<svg xmlns="http://www.w3.org/2000/svg" xml:space="preserve" fill-rule="evenodd" stroke-linejoin="round" stroke-miterlimit="2" clip-rule="evenodd" viewBox="0 0 1000 1000"><style>.fill{fill:#d31531}@media(prefers-color-scheme:dark){.fill{fill:#d71536}}</style><path fill="#d71536" d="M0 0h1000v1000H0z" class="fill"/><path fill="#fff" d="M142.819 372.119v156.29h-84.86V83.921H200.57c41.84 0 74.842 13.753 99.592 40.635 24.162 27.507 36.537 63.14 36.537 106.277 0 43.76-11.786 78.144-36.537 103.15-24.161 25.632-57.751 38.135-101.36 38.135H142.82Zm0-75.019h57.751c16.5 0 28.876-5.626 37.715-16.254 8.84-11.253 12.965-27.507 12.965-49.387s-4.125-39.385-13.554-52.514c-8.84-13.128-21.215-20.005-35.947-20.005h-58.93V297.1ZM478.04 454.015h148.504v74.393H393.18V83.922h84.86v370.093ZM941.113 83.922v307.577c-.589 46.262-12.375 81.895-36.536 106.277-23.573 24.38-57.163 36.884-101.36 36.884-44.787 0-78.967-12.503-102.539-37.51-24.161-25.006-35.947-60.64-35.947-107.527V83.922h85.448v305.701c0 25.632 3.536 43.136 11.197 54.39 7.661 10.627 21.804 16.253 41.84 16.253 20.037 0 34.18-5.626 41.252-16.254 7.66-10.628 11.786-28.132 11.786-52.513V83.922h84.86ZM228.88 814.387c-1.116 30.02-9.308 52.93-23.83 69.125-14.52 16.195-35 24.095-61.436 24.095s-47.288-10.665-62.926-32.39c-15.639-21.33-23.458-50.165-23.458-86.9v-50.954c0-36.34 7.82-65.175 23.83-86.505 16.011-21.33 37.98-31.995 65.905-31.995 25.32 0 45.426 8.295 59.203 24.49 14.149 16.195 21.596 39.5 22.713 69.52H195.37c-1.49-22.91-5.958-39.105-13.405-48.98-7.819-9.875-19.361-14.615-35-14.615-18.245 0-32.022 7.505-41.702 22.515-9.681 15.01-14.522 36.735-14.522 65.965v51.35c0 28.44 4.468 50.164 13.404 65.174 9.31 15.405 22.341 22.91 39.469 22.91 17.5 0 30.16-4.345 37.607-13.825 7.819-9.085 12.287-25.28 14.149-48.98h33.51ZM262.721 789.503c0-30.02 7.075-54.115 20.851-71.89 14.15-17.775 32.394-26.465 55.107-26.465s40.958 8.69 55.107 25.675c13.777 17.38 20.852 40.685 21.224 70.705v21.725c0 30.414-6.702 54.114-20.851 71.89-13.777 17.38-32.022 26.464-55.107 26.464-22.713 0-40.958-8.69-54.735-25.675-13.777-16.985-20.851-40.29-21.596-69.52v-22.91Zm32.394 19.75c0 21.724 3.723 38.314 11.915 50.56 7.82 12.244 18.617 18.564 32.022 18.564 28.298 0 42.82-21.725 43.936-65.175v-23.7c0-21.33-4.096-37.92-12.287-50.56-7.82-12.244-18.617-18.564-32.022-18.564-13.032 0-23.83 6.32-31.649 18.565-8.192 12.64-11.915 29.23-11.915 50.56v19.75ZM449.626 789.898c0-31.995 5.957-56.485 17.128-73.47 11.17-16.985 27.553-25.28 48.777-25.28 18.99 0 33.51 7.9 43.937 24.095V607.408h32.393v296.25h-29.415l-1.861-22.516c-10.426 17.775-25.692 26.465-45.054 26.465-20.48 0-36.49-8.295-48.033-25.28-11.542-16.59-17.5-40.29-17.872-71.1v-21.33Zm32.394 19.355c0 23.304 3.351 40.684 9.68 51.35 6.703 11.06 17.129 16.59 32.022 16.59 16.011 0 27.926-8.69 35.746-25.676v-105.07c-8.192-16.59-20.107-24.884-35.373-24.884-14.894 0-25.692 5.135-32.022 16.195-6.702 11.06-10.053 28.045-10.053 50.56v20.935ZM711.41 907.607c-24.203 0-43.192-7.9-56.224-23.305-13.032-15.405-19.735-38.315-20.107-68.335v-25.28c0-30.81 6.702-55.3 19.362-73.074 12.66-17.775 30.532-26.465 53.618-26.465 23.085 0 40.213 7.9 51.383 23.305 11.543 15.405 17.5 39.895 17.5 72.68v22.515H667.101v4.74c0 22.514 4.096 38.71 11.915 48.584 8.191 10.27 19.362 15.405 34.255 15.405 9.681 0 17.873-1.975 24.947-5.53 7.447-3.95 14.15-9.875 20.48-18.17l16.755 21.725c-14.15 20.54-35.373 31.205-64.043 31.205Zm-3.351-187.23c-13.405 0-23.458 4.74-29.788 14.616-6.33 9.875-10.053 24.885-10.798 45.03h77.448v-4.345c-1.117-19.75-4.468-33.97-10.054-42.66-5.957-8.295-14.893-12.64-26.808-12.64ZM911.087 850.332c0-7.505-2.607-13.825-7.82-18.96-5.213-5.135-15.266-11.455-30.16-18.564-17.127-7.505-29.415-14.22-36.49-19.355-7.074-5.53-12.287-11.85-16.01-18.565-3.351-6.715-5.213-15.01-5.213-24.49 0-16.985 5.958-31.205 17.5-42.265 11.543-11.455 26.809-16.985 44.682-16.985 19.361 0 34.628 5.925 46.17 17.775 11.915 11.85 17.5 26.86 17.5 45.425h-32.021c0-9.48-2.979-17.38-8.936-24.095-5.586-6.32-13.405-9.875-22.713-9.875-9.31 0-16.756 2.765-21.969 7.9-5.585 5.135-8.191 12.245-8.191 20.935 0 6.715 1.861 12.245 5.957 16.59 3.724 4.345 13.405 9.875 28.298 16.59 23.83 9.875 40.214 19.75 48.777 29.23 8.564 9.48 13.033 21.33 13.033 35.944 0 18.17-5.958 32.785-17.873 43.45-11.543 11.06-27.554 16.59-47.288 16.59-20.479 0-36.862-6.32-49.522-18.96-13.032-12.245-19.361-28.045-19.361-47.4h32.393c.373 11.85 3.724 20.935 10.054 27.255 6.33 6.715 15.266 9.875 26.436 9.875 10.798 0 18.99-2.37 24.575-7.505 5.585-5.135 8.192-11.85 8.192-20.54Z"/></svg>