<?xml version="1.0" standalone="no"?>
<!DOCTYPE svg PUBLIC "-//W3C//DTD SVG 20010904//EN"
 "http://www.w3.org/TR/2001/REC-SVG-20010904/DTD/svg10.dtd">
<svg version="1.0" xmlns="http://www.w3.org/2000/svg"
 width="700.000000pt" height="700.000000pt" viewBox="0 0 700.000000 700.000000"
 preserveAspectRatio="xMidYMid meet">
<metadata>
Created by potrace 1.14, written by Peter Selinger 2001-2017
</metadata>
<g transform="translate(0.000000,700.000000) scale(0.100000,-0.100000)"
fill="#000000" stroke="none">
<path d="M0 3500 l0 -3500 3500 0 3500 0 0 3500 0 3500 -3500 0 -3500 0 0
-3500z m1675 2882 c393 -109 631 -419 676 -878 19 -193 -10 -414 -75 -574 -42
-106 -88 -172 -191 -276 -89 -90 -111 -106 -205 -153 -177 -87 -215 -93 -572
-98 l-308 -5 0 -549 0 -549 -295 0 -295 0 0 1556 0 1555 593 -3 c576 -4 594
-4 672 -26z m1675 -1267 l0 -1295 520 0 520 0 0 -260 0 -260 -820 0 -820 0 0
1555 0 1555 300 0 300 0 0 -1295z m1903 138 c3 -1286 0 -1228 70 -1344 27 -45
43 -59 101 -89 68 -34 71 -35 190 -35 184 0 267 38 320 148 57 115 56 94 56
1335 l0 1142 300 0 300 0 0 -1093 c0 -721 -4 -1131 -11 -1203 -46 -458 -274
-735 -684 -830 -115 -27 -435 -27 -550 0 -412 96 -641 376 -684 837 -7 73 -11
508 -11 1202 l0 1087 300 0 299 0 4 -1157z m-1113 -3543 l0 -1040 -99 0 c-113
0 -111 -2 -111 98 0 28 -3 52 -7 52 -5 0 -21 -18 -36 -40 -64 -91 -169 -135
-306 -128 -74 3 -99 9 -154 36 -115 57 -200 179 -249 357 -20 73 -22 104 -22
355 -1 255 1 282 22 365 64 251 197 383 397 393 134 7 240 -35 313 -125 l31
-38 1 378 0 377 110 0 110 0 0 -1040z m-2919 930 c214 -66 349 -266 375 -555
l7 -75 -116 0 -116 0 -5 33 c-34 238 -75 325 -180 380 -63 32 -212 36 -289 7
-119 -45 -201 -164 -238 -346 -19 -91 -20 -127 -17 -469 4 -346 6 -375 27
-443 43 -145 104 -232 195 -280 46 -24 62 -27 156 -27 95 0 110 3 163 29 106
52 147 133 182 368 l6 38 114 0 115 0 0 -37 c-1 -57 -25 -181 -49 -247 -44
-126 -140 -245 -239 -299 -113 -61 -324 -86 -449 -53 -249 66 -414 303 -453
651 -13 119 -13 570 1 692 40 358 228 603 502 653 78 14 232 4 308 -20z m1284
-495 c174 -46 307 -190 365 -395 44 -161 47 -511 5 -675 -53 -205 -196 -365
-369 -411 -68 -18 -198 -18 -271 1 -177 46 -320 216 -372 440 -15 66 -18 121
-17 310 0 260 11 323 81 465 63 131 193 239 320 269 61 14 194 12 258 -4z
m2590 0 c236 -61 345 -281 345 -697 l0 -118 -387 0 -386 0 6 -97 c15 -240 108
-363 289 -380 71 -6 171 15 222 47 17 10 51 39 76 64 25 25 48 46 51 46 6 0
56 -62 107 -132 12 -16 7 -25 -50 -81 -102 -102 -220 -147 -386 -147 -267 0
-435 129 -509 390 -16 56 -18 104 -18 350 1 283 1 286 28 375 67 215 174 335
338 379 72 19 201 20 274 1z m1228 -14 c145 -56 242 -186 262 -353 l7 -58
-116 0 -116 0 0 33 c-1 66 -56 149 -125 185 -45 24 -150 21 -202 -6 -72 -37
-112 -120 -99 -206 13 -83 58 -118 293 -227 221 -103 308 -176 354 -297 31
-83 24 -233 -13 -314 -33 -71 -102 -146 -166 -181 -137 -74 -355 -77 -494 -6
-54 27 -151 120 -182 173 -31 54 -56 139 -56 193 l0 43 109 0 108 0 17 -67
c10 -40 28 -82 45 -103 58 -73 162 -104 274 -80 136 28 198 176 122 291 -31
47 -97 90 -285 184 -180 90 -236 128 -283 193 -96 130 -88 339 17 473 53 67
109 106 195 136 57 21 80 23 171 20 77 -3 120 -10 163 -26z"/>
<path d="M1000 5406 l0 -486 229 0 c200 0 237 2 293 20 113 35 189 125 220
262 19 80 15 299 -5 378 -36 134 -109 234 -205 282 -45 22 -59 23 -289 26
l-243 4 0 -486z"/>
<path d="M3579 1936 c-95 -25 -143 -85 -180 -222 -30 -111 -33 -476 -5 -599
33 -148 92 -220 197 -245 60 -15 144 -8 188 14 42 22 97 79 121 126 19 37 20
59 20 400 l0 362 -35 53 c-71 106 -179 145 -306 111z"/>
<path d="M2315 1951 c-111 -29 -199 -139 -231 -290 -19 -90 -19 -422 0 -513
27 -126 92 -224 180 -271 57 -30 174 -30 232 1 94 49 150 148 175 312 17 110
7 429 -16 500 -38 122 -96 204 -168 239 -48 23 -128 33 -172 22z"/>
<path d="M4878 1946 c-117 -32 -178 -136 -203 -348 l-6 -58 272 0 272 0 -6 88
c-13 189 -75 297 -187 321 -63 14 -82 13 -142 -3z"/>
</g>
</svg>
