<?xml version="1.0" encoding="UTF-8" standalone="no"?>
<!DOCTYPE svg PUBLIC "-//W3C//DTD SVG 1.1//EN" "http://www.w3.org/Graphics/SVG/1.1/DTD/svg11.dtd">
<svg width="100%" height="100%" viewBox="0 0 371 183" version="1.1" xmlns="http://www.w3.org/2000/svg" xmlns:xlink="http://www.w3.org/1999/xlink" xml:space="preserve" xmlns:serif="http://www.serif.com/" style="fill-rule:evenodd;clip-rule:evenodd;stroke-linejoin:round;stroke-miterlimit:2;">
    <rect id="Artboard1" x="0" y="0" width="371" height="182.507" style="fill:none;"/>
    <clipPath id="_clip1">
        <rect x="0" y="0" width="371" height="182.507"/>
    </clipPath>
    <g clip-path="url(#_clip1)">
        <path id="s" d="M319,52.122C325.653,51.793 327.8,51.895 344,46.122C337.719,50.899 331.655,57.74 330.755,66.315C329.67,76.648 330.914,87.708 330.846,92.729C330.741,100.432 325.319,107.066 322,108.122L371,108.122C367.322,111.045 365.312,114.749 365,116.122L301,116.122C294.311,116.124 289,110.027 289,106.122C286.5,109.122 283.333,112.456 279,116.122L263,116.122C270.667,109.456 308.667,67.789 319,52.122ZM321.664,67.787L297.944,95.57C297.944,95.57 303.259,105.801 314,96.122C318.396,92.161 317.843,84.034 318.559,79.958C319.945,72.072 321.664,67.787 321.664,67.787Z" style="fill:#ef2535;"/>
        <path id="_-" serif:id="&apos;" d="M301.318,46.809C298.73,45.227 297,42.375 297,39.122C297,34.155 301.033,30.122 306,30.122C310.967,30.122 315,34.155 315,39.122C315.055,47.659 310.398,53.38 304.664,58.634C298.497,64.285 291.182,69.149 290,69.122C290,69.122 303.201,57.484 301.318,46.809L301.318,46.809Z" style="fill:#ef2535;"/>
        <path id="y" d="M232,54.122L251,54.122C250.983,54.469 250.551,55.942 249.899,56.949C241.183,70.406 233.115,77.45 228.994,83.656C219.906,97.344 223.319,102.113 226.993,103.283C232.835,105.144 246.057,96.893 254.855,82.218C257.862,77.205 264.812,64.788 266.663,56.949C267.125,54.992 267,54.207 267,54.122L286,54.122C261.11,95.263 242.404,145.351 212.112,167.653C184.401,188.057 130.661,188.899 104.244,160.018C103.893,159.499 103.392,158.954 103.535,156.979C106.537,160.011 128.397,171.399 152.1,171.417C166.853,171.428 182.153,168.638 200.404,156.153C217.121,144.718 230.308,127.62 236,110.122C231.103,115.809 215.367,120.808 207.458,116.122C187.554,104.331 225.232,65.727 231.561,56.927C232.11,56.164 232.009,54.435 232,54.122Z" style="fill:#ef2535;"/>
        <path id="a" d="M188,63.122L195,54.122L215,54.122C207.22,63.439 163.173,127.789 203.006,97.122C204.874,95.684 203.722,102.512 202,104.122C181.499,123.289 163.497,119.813 169,105.122C130.683,131.363 114.603,105.631 134.696,78.949C152.392,55.451 188.835,45.521 188,63.122ZM180.197,66.775C184.549,70.829 180.729,82.014 171.672,91.737C162.614,101.461 151.728,106.064 147.376,102.01C143.024,97.956 146.844,86.771 155.901,77.047C164.958,67.324 175.844,62.721 180.197,66.775Z" style="fill:#ef2535;"/>
        <g id="R">
            <path d="M10,116.122C20.832,89.646 44.939,62.684 69,41.122C69.061,41.122 91.984,41.121 92,41.122C78.393,56.684 59.341,83.538 52,116.122C51.508,116.069 10.048,116.121 10,116.122Z" style="fill:#ef2535;"/>
            <path d="M0,54.122C15.809,36.193 89.161,0.122 140,0.122C178.415,0.119 185.786,12.868 182.382,28.04C176.008,56.44 118.521,71.122 106,71.122C98.453,96.937 119.908,155.06 203,121.122C203.409,124.938 182.307,159.916 144.455,160.018C76.673,154.558 82.243,82.771 91,63.122C137.508,64.386 164.128,17.068 136.916,13.252C117.07,10.469 73.073,21.772 47,54.122C46.732,54.122 -0.02,54.123 0,54.122Z" style="fill:#ef2535;"/>
        </g>
    </g>
</svg>
