<?xml version="1.0" encoding="UTF-8" standalone="no"?>
<!DOCTYPE svg PUBLIC "-//W3C//DTD SVG 1.1//EN" "http://www.w3.org/Graphics/SVG/1.1/DTD/svg11.dtd">
<svg width="100%" height="100%" viewBox="0 0 796 163" version="1.1" xmlns="http://www.w3.org/2000/svg" xmlns:xlink="http://www.w3.org/1999/xlink" xml:space="preserve" xmlns:serif="http://www.serif.com/" style="fill-rule:evenodd;clip-rule:evenodd;stroke-linejoin:round;stroke-miterlimit:2;">
    <rect id="Artboard1" x="0" y="0" width="796" height="163" style="fill:none;"/>
    <g id="TM">
        <path id="M" d="M791,103L796,103L796,117.003L793,117.003L793,107L790.566,117.003L787.529,117.003L785,107L785,117.003L782,117.003L782,103L787,103L789,113L791,103Z" style="fill:#ed1c24;"/>
        <path id="T" d="M777,106L774,106L774,117.003L777,117.003L777,106ZM781,103L770,103L770,106L781,106L781,103Z" style="fill:#ed1c24;"/>
    </g>
    <g id="Smart">
        <path id="t" d="M759,32.993L759,0.125L726.101,32.993L726.101,117.003L759,117.003L759,45L770,45L770,32.993L759,32.993Z" style="fill:#ed1c24;"/>
        <g id="r">
            <circle cx="704.849" cy="50" r="17" style="fill:#ed1c24;"/>
            <rect x="653" y="33" width="33" height="84.003" style="fill:#ed1c24;"/>
        </g>
        <g id="a">
            <path d="M643,55.482C643,43.925 628.4,33.001 620.167,33C620.088,33.036 600.138,32.972 600.132,33C608.226,36.375 610.227,45.258 610.227,51.167C610.211,51.173 610.235,71 610.235,71C610.238,93.274 610.248,117.003 610.248,117.003L643,117.003C643,117.003 643,59.273 643,55.482Z" style="fill:#ed1c24;"/>
            <path d="M602.961,70.033L602.961,117.003C584.754,117.009 567.961,111.725 567.961,93.518C567.961,73.828 584.742,70.095 602.961,70.033Z" style="fill:#ed1c24;"/>
            <circle cx="589.415" cy="50" r="17" style="fill:#ed1c24;"/>
        </g>
        <g id="m">
            <path d="M562,55.482C562,43.925 546.826,33.001 538.269,33C538.187,33.036 509.138,32.972 509.132,33C516.505,34.375 527.132,46.258 527.132,58.167C527.115,58.173 527.132,71 527.132,71L528.986,71C528.99,93.274 529,117.003 529,117.003L562,117.003C562,117.003 562,59.273 562,55.482Z" style="fill:#ed1c24;"/>
            <path d="M496,33L485,33L485,70L488.854,70C488.858,92.527 488.869,117.003 488.869,117.003L522.132,117.003C522.132,117.003 522.132,63.273 522.132,59.482C522.132,48.925 515.651,43.083 513.01,40.443C507.766,35.199 503.416,32.995 496,33Z" style="fill:#ed1c24;"/>
            <rect x="450" y="33" width="30" height="84.003" style="fill:#ed1c24;"/>
        </g>
        <g id="S">
            <path d="M362.89,64L362.89,117.003L405.89,117.003L362.89,64Z" style="fill:#ed1c24;"/>
            <path d="M364.89,43C360.446,37.693 357.212,16.565 370.082,6.938C376.588,2.072 378.688,0.125 396.971,0.125C396.98,0.121 390.473,5.497 394.983,12.907C396.737,15.131 437.619,68.008 439.89,71C448.744,82.669 447.34,102.08 437.168,110.3C428.784,117.075 423.027,117.003 409.914,117.003C409.841,117.003 418.169,111.563 409.909,100.981C408.346,98.979 366.004,44.441 364.89,43Z" style="fill:#ed1c24;"/>
            <path d="M401.89,0.125L440.89,0.125L440.89,50L401.89,0.125Z" style="fill:#ed1c24;"/>
        </g>
    </g>
    <g id="Shop">
        <g id="p">
            <path d="M307.57,33L307.57,117.003C328.828,114.816 345.43,96.832 345.43,75.002C345.43,53.171 328.828,35.187 307.57,33Z" style="fill:#ed1c24;"/>
            <rect x="265" y="33" width="33" height="130" style="fill:#ed1c24;"/>
        </g>
        <g id="o">
            <path d="M219.868,33L219.868,117.003C241.126,114.816 257.728,96.832 257.728,75.002C257.728,53.171 241.126,35.187 219.868,33Z" style="fill:#ed1c24;"/>
            <path d="M211.132,33L211.132,117.003C189.874,114.816 173.272,96.832 173.272,75.002C173.272,53.171 189.874,35.187 211.132,33Z" style="fill:#ed1c24;"/>
        </g>
        <g id="h">
            <path d="M166,51.482C166,46.925 164.517,42.004 159.927,37.443C153.697,31.251 133.471,33.338 133,33.339C132.966,38.843 133,117.003 133,117.003L166,117.003C166,117.003 166,55.273 166,51.482Z" style="fill:#ed1c24;"/>
            <rect x="91" y="0.125" width="33" height="116.878" style="fill:#ed1c24;"/>
        </g>
        <g id="S1" serif:id="S">
            <path d="M2,64L2,117.003L45,117.003L2,64Z" style="fill:#ed1c24;"/>
            <path d="M4,43C-0.443,37.693 -3.678,16.565 9.193,6.938C15.698,2.072 17.799,0.125 36.081,0.125C36.09,0.121 29.583,5.497 34.093,12.907C35.847,15.131 76.729,68.008 79,71C87.854,82.669 86.451,102.08 76.278,110.3C67.894,117.075 62.137,117.003 49.024,117.003C48.952,117.003 57.279,111.563 49.019,100.981C47.457,98.979 5.114,44.441 4,43Z" style="fill:#ed1c24;"/>
            <path d="M41,0.125L80,0.125L80,50L41,0.125Z" style="fill:#ed1c24;"/>
        </g>
    </g>
</svg>
