<svg xmlns="http://www.w3.org/2000/svg" fill-rule="evenodd" stroke-linejoin="round" stroke-miterlimit="2" clip-rule="evenodd" class="red" viewBox="0 0 371 183"><style>.red{fill:#d31531}@media(prefers-color-scheme:dark){.red{fill:#d71536}}</style><path d="M319 52.122c6.653-.329 8.8-.227 25-6-6.281 4.777-12.345 11.618-13.245 20.193-1.085 10.333.159 21.393.091 26.414-.105 7.703-5.527 14.337-8.846 15.393h49c-3.678 2.923-5.688 6.627-6 8h-64c-6.689.002-12-6.095-12-10-2.5 3-5.667 6.334-10 10h-16c7.667-6.666 45.667-48.333 56-64zm2.664 15.665l-23.72 27.783s5.315 10.231 16.056.552c4.396-3.961 3.843-12.088 4.559-16.164 1.386-7.886 3.105-12.171 3.105-12.171zM301.318 46.809A9.002 9.002 0 01297 39.122c0-4.967 4.033-9 9-9s9 4.033 9 9c.055 8.537-4.602 14.258-10.336 19.512-6.167 5.651-13.482 10.515-14.664 10.488 0 0 13.201-11.638 11.318-22.313zM232 54.122h19c-.017.347-.449 1.82-1.101 2.827-8.716 13.457-16.784 20.501-20.905 26.707-9.088 13.688-5.675 18.457-2.001 19.627 5.842 1.861 19.064-6.39 27.862-21.065 3.007-5.013 9.957-17.43 11.808-25.269.462-1.957.337-2.742.337-2.827h19c-24.89 41.141-43.596 91.229-73.888 113.531-27.711 20.404-81.451 21.246-107.868-7.635-.351-.519-.852-1.064-.709-3.039 3.002 3.032 24.862 14.42 48.565 14.438 14.753.011 30.053-2.779 48.304-15.264 16.717-11.435 29.904-28.533 35.596-46.031-4.897 5.687-20.633 10.686-28.542 6-19.904-11.791 17.774-50.395 24.103-59.195.549-.763.448-2.492.439-2.805z"/><path d="M188 63.122l7-9h20c-7.78 9.317-51.827 73.667-11.994 43 1.868-1.438.716 5.39-1.006 7-20.501 19.167-38.503 15.691-33 1-38.317 26.241-54.397.509-34.304-26.173C152.392 55.451 188.835 45.521 188 63.122zm-7.803 3.653c4.352 4.054.532 15.239-8.525 24.962-9.058 9.724-19.944 14.327-24.296 10.273s-.532-15.239 8.525-24.963c9.057-9.723 19.943-14.326 24.296-10.272zM10 116.122c10.832-26.476 34.939-53.438 59-75h23c-13.607 15.562-32.659 42.416-40 75-.492-.053-41.952-.001-42 0z"/><path d="M0 54.122c15.809-17.929 89.161-54 140-54 38.415-.003 45.786 12.746 42.382 27.918-6.374 28.4-63.861 43.082-76.382 43.082-7.547 25.815 13.908 83.938 97 50 .409 3.816-20.693 38.794-58.545 38.896C76.673 154.558 82.243 82.771 91 63.122c46.508 1.264 73.128-46.054 45.916-49.87-19.846-2.783-63.843 8.52-89.916 40.87H0z"/></svg>