<svg xmlns="http://www.w3.org/2000/svg" stroke-linejoin="round" stroke-miterlimit="2" class="red" viewBox="0 0 796 163"><style>.red{fill:#d31531}@media(prefers-color-scheme:dark){.red{fill:#d71536}}</style><path d="M791 103h5v14.003h-3V107l-2.434 10.003h-3.037L785 107v10.003h-3V103h5l2 10 2-10zM777 106h-3v11.003h3V106zm4-3h-11v3h11v-3z"/><path d="M759 32.993V.125l-32.899 32.868v84.01H759V45h11V32.993h-11z"/><circle cx="704.849" cy="50" r="17"/><path d="M653 33h33v84.003h-33zM643 55.482c0-11.557-14.6-22.481-22.833-22.482-.079.036-20.029-.028-20.035 0 8.094 3.375 10.095 12.258 10.095 18.167-.016.006.008 19.833.008 19.833.003 22.274.013 46.003.013 46.003H643V55.482zM602.961 70.033v46.97c-18.207.006-35-5.278-35-23.485 0-19.69 16.781-23.423 35-23.485z"/><circle cx="589.415" cy="50" r="17"/><path d="M562 55.482c0-11.557-15.174-22.481-23.731-22.482-.082.036-29.131-.028-29.137 0 7.373 1.375 18 13.258 18 25.167-.017.006 0 12.833 0 12.833h1.854c.004 22.274.014 46.003.014 46.003h33V55.482z"/><path d="M496 33h-11v37h3.854c.004 22.527.015 47.003.015 47.003h33.263V59.482c0-10.557-6.481-16.399-9.122-19.039-5.244-5.244-9.594-7.448-17.01-7.443zM450 33h30v84.003h-30z"/><path d="M362.89 64v53.003h43L362.89 64zM364.89 43c-4.444-5.307-7.678-26.435 5.192-36.062 6.506-4.866 8.606-6.813 26.889-6.813.009-.004-6.498 5.372-1.988 12.782 1.754 2.224 42.636 55.101 44.907 58.093 8.854 11.669 7.45 31.08-2.722 39.3-8.384 6.775-14.141 6.703-27.254 6.703-.073 0 8.255-5.44-.005-16.022-1.563-2.002-43.905-56.54-45.019-57.981zM401.89.125h39V50l-39-49.875z"/><path d="M307.57 33v84.003c21.258-2.187 37.86-20.171 37.86-42.001 0-21.831-16.602-39.815-37.86-42.002zM265 33h33v130h-33zM219.868 33v84.003c21.258-2.187 37.86-20.171 37.86-42.001 0-21.831-16.602-39.815-37.86-42.002zM211.132 33v84.003c-21.258-2.187-37.86-20.171-37.86-42.001 0-21.831 16.602-39.815 37.86-42.002z"/><path d="M166 51.482c0-4.557-1.483-9.478-6.073-14.039-6.23-6.192-26.456-4.105-26.927-4.104-.034 5.504 0 83.664 0 83.664h33V51.482zM91 .125h33v116.878H91z"/><path d="M2 64v53.003h43L2 64zM4 43C-.443 37.693-3.678 16.565 9.193 6.938 15.698 2.072 17.799.125 36.081.125c.009-.004-6.498 5.372-1.988 12.782C35.847 15.131 76.729 68.008 79 71c8.854 11.669 7.451 31.08-2.722 39.3-8.384 6.775-14.141 6.703-27.254 6.703-.072 0 8.255-5.44-.005-16.022C47.457 98.979 5.114 44.441 4 43zM41 .125h39V50L41 .125z"/></svg>