<?xml version="1.0" encoding="UTF-8" standalone="no"?>
<!DOCTYPE svg PUBLIC "-//W3C//DTD SVG 1.1//EN" "http://www.w3.org/Graphics/SVG/1.1/DTD/svg11.dtd">
<svg width="100%" height="100%" viewBox="0 0 1000 1000" version="1.1" xmlns="http://www.w3.org/2000/svg" xmlns:xlink="http://www.w3.org/1999/xlink" xml:space="preserve" xmlns:serif="http://www.serif.com/" style="fill-rule:evenodd;clip-rule:evenodd;stroke-linejoin:round;stroke-miterlimit:2;">
    <rect id="Artboard1" x="0" y="0" width="1000" height="1000" style="fill:#d71536;"/>
    <g id="Artboard11" serif:id="Artboard1">
        <g transform="matrix(11.2634,0,0,11.9487,-2068.63,-4577.08)">
            <g transform="matrix(52.3201,0,0,52.3201,185.823,427.284)">
                <path d="M0.201,-0.25L0.201,-0L0.057,-0L0.057,-0.711L0.299,-0.711C0.37,-0.711 0.426,-0.689 0.468,-0.646C0.509,-0.602 0.53,-0.545 0.53,-0.476C0.53,-0.406 0.51,-0.351 0.468,-0.311C0.427,-0.27 0.37,-0.25 0.296,-0.25L0.201,-0.25ZM0.201,-0.37L0.299,-0.37C0.327,-0.37 0.348,-0.379 0.363,-0.396C0.378,-0.414 0.385,-0.44 0.385,-0.475C0.385,-0.51 0.378,-0.538 0.362,-0.559C0.347,-0.58 0.326,-0.591 0.301,-0.591L0.201,-0.591L0.201,-0.37Z" style="fill:#fff;fill-rule:nonzero;"/>
            </g>
            <g transform="matrix(52.3201,0,0,52.3201,215.585,427.284)">
                <path d="M0.201,-0.119L0.453,-0.119L0.453,-0L0.057,-0L0.057,-0.711L0.201,-0.711L0.201,-0.119Z" style="fill:#fff;fill-rule:nonzero;"/>
            </g>
            <g transform="matrix(52.3201,0,0,52.3201,240.008,427.284)">
                <path d="M0.52,-0.711L0.52,-0.219C0.519,-0.145 0.499,-0.088 0.458,-0.049C0.418,-0.01 0.361,0.01 0.286,0.01C0.21,0.01 0.152,-0.01 0.112,-0.05C0.071,-0.09 0.051,-0.147 0.051,-0.222L0.051,-0.711L0.196,-0.711L0.196,-0.222C0.196,-0.181 0.202,-0.153 0.215,-0.135C0.228,-0.118 0.252,-0.109 0.286,-0.109C0.32,-0.109 0.344,-0.118 0.356,-0.135C0.369,-0.152 0.376,-0.18 0.376,-0.219L0.376,-0.711L0.52,-0.711Z" style="fill:#fff;fill-rule:nonzero;"/>
            </g>
            <g transform="matrix(33.0579,0,0,33.0579,186.724,458.689)">
                <path d="M0.522,-0.226C0.519,-0.15 0.497,-0.092 0.458,-0.051C0.419,-0.01 0.364,0.01 0.293,0.01C0.222,0.01 0.166,-0.017 0.124,-0.072C0.082,-0.126 0.061,-0.199 0.061,-0.292L0.061,-0.421C0.061,-0.513 0.082,-0.586 0.125,-0.64C0.168,-0.694 0.227,-0.721 0.302,-0.721C0.37,-0.721 0.424,-0.7 0.461,-0.659C0.499,-0.618 0.519,-0.559 0.522,-0.483L0.432,-0.483C0.428,-0.541 0.416,-0.582 0.396,-0.607C0.375,-0.632 0.344,-0.644 0.302,-0.644C0.253,-0.644 0.216,-0.625 0.19,-0.587C0.164,-0.549 0.151,-0.494 0.151,-0.42L0.151,-0.29C0.151,-0.218 0.163,-0.163 0.187,-0.125C0.212,-0.086 0.247,-0.067 0.293,-0.067C0.34,-0.067 0.374,-0.078 0.394,-0.102C0.415,-0.125 0.427,-0.166 0.432,-0.226L0.522,-0.226Z" style="fill:#fff;fill-rule:nonzero;"/>
            </g>
            <g transform="matrix(33.0579,0,0,33.0579,205.464,458.689)">
                <path d="M0.046,-0.289C0.046,-0.365 0.065,-0.426 0.102,-0.471C0.14,-0.516 0.189,-0.538 0.25,-0.538C0.311,-0.538 0.36,-0.516 0.398,-0.473C0.435,-0.429 0.454,-0.37 0.455,-0.294L0.455,-0.239C0.455,-0.162 0.437,-0.102 0.399,-0.057C0.362,-0.013 0.313,0.01 0.251,0.01C0.19,0.01 0.141,-0.012 0.104,-0.055C0.067,-0.098 0.048,-0.157 0.046,-0.231L0.046,-0.289ZM0.133,-0.239C0.133,-0.184 0.143,-0.142 0.165,-0.111C0.186,-0.08 0.215,-0.064 0.251,-0.064C0.327,-0.064 0.366,-0.119 0.369,-0.229L0.369,-0.289C0.369,-0.343 0.358,-0.385 0.336,-0.417C0.315,-0.448 0.286,-0.464 0.25,-0.464C0.215,-0.464 0.186,-0.448 0.165,-0.417C0.143,-0.385 0.133,-0.343 0.133,-0.289L0.133,-0.239Z" style="fill:#fff;fill-rule:nonzero;"/>
            </g>
            <g transform="matrix(33.0579,0,0,33.0579,222.058,458.689)">
                <path d="M0.046,-0.288C0.046,-0.369 0.062,-0.431 0.092,-0.474C0.122,-0.517 0.166,-0.538 0.223,-0.538C0.274,-0.538 0.313,-0.518 0.341,-0.477L0.341,-0.75L0.428,-0.75L0.428,-0L0.349,-0L0.344,-0.057C0.316,-0.012 0.275,0.01 0.223,0.01C0.168,0.01 0.125,-0.011 0.094,-0.054C0.063,-0.096 0.047,-0.156 0.046,-0.234L0.046,-0.288ZM0.133,-0.239C0.133,-0.18 0.142,-0.136 0.159,-0.109C0.177,-0.081 0.205,-0.067 0.245,-0.067C0.288,-0.067 0.32,-0.089 0.341,-0.132L0.341,-0.398C0.319,-0.44 0.287,-0.461 0.246,-0.461C0.206,-0.461 0.177,-0.448 0.16,-0.42C0.142,-0.392 0.133,-0.349 0.133,-0.292L0.133,-0.239Z" style="fill:#fff;fill-rule:nonzero;"/>
            </g>
            <g transform="matrix(33.0579,0,0,33.0579,238.457,458.689)">
                <path d="M0.253,0.01C0.188,0.01 0.137,-0.01 0.102,-0.049C0.067,-0.088 0.049,-0.146 0.048,-0.222L0.048,-0.286C0.048,-0.364 0.066,-0.426 0.1,-0.471C0.134,-0.516 0.182,-0.538 0.244,-0.538C0.306,-0.538 0.352,-0.518 0.382,-0.479C0.413,-0.44 0.429,-0.378 0.429,-0.295L0.429,-0.238L0.134,-0.238L0.134,-0.226C0.134,-0.169 0.145,-0.128 0.166,-0.103C0.188,-0.077 0.218,-0.064 0.258,-0.064C0.284,-0.064 0.306,-0.069 0.325,-0.078C0.345,-0.088 0.363,-0.103 0.38,-0.124L0.425,-0.069C0.387,-0.017 0.33,0.01 0.253,0.01ZM0.244,-0.464C0.208,-0.464 0.181,-0.452 0.164,-0.427C0.147,-0.402 0.137,-0.364 0.135,-0.313L0.343,-0.313L0.343,-0.324C0.34,-0.374 0.331,-0.41 0.316,-0.432C0.3,-0.453 0.276,-0.464 0.244,-0.464Z" style="fill:#fff;fill-rule:nonzero;"/>
            </g>
            <g transform="matrix(33.0579,0,0,33.0579,253.937,458.689)">
                <path d="M0.321,-0.135C0.321,-0.154 0.314,-0.17 0.3,-0.183C0.286,-0.196 0.259,-0.212 0.219,-0.23C0.173,-0.249 0.14,-0.266 0.121,-0.279C0.102,-0.293 0.088,-0.309 0.078,-0.326C0.069,-0.343 0.064,-0.364 0.064,-0.388C0.064,-0.431 0.08,-0.467 0.111,-0.495C0.142,-0.524 0.183,-0.538 0.231,-0.538C0.283,-0.538 0.324,-0.523 0.355,-0.493C0.387,-0.463 0.402,-0.425 0.402,-0.378L0.316,-0.378C0.316,-0.402 0.308,-0.422 0.292,-0.439C0.277,-0.455 0.256,-0.464 0.231,-0.464C0.206,-0.464 0.186,-0.457 0.172,-0.444C0.157,-0.431 0.15,-0.413 0.15,-0.391C0.15,-0.374 0.155,-0.36 0.166,-0.349C0.176,-0.338 0.202,-0.324 0.242,-0.307C0.306,-0.282 0.35,-0.257 0.373,-0.233C0.396,-0.209 0.408,-0.179 0.408,-0.142C0.408,-0.096 0.392,-0.059 0.36,-0.032C0.329,-0.004 0.286,0.01 0.233,0.01C0.178,0.01 0.134,-0.006 0.1,-0.038C0.065,-0.069 0.048,-0.109 0.048,-0.158L0.135,-0.158C0.136,-0.128 0.145,-0.105 0.162,-0.089C0.179,-0.072 0.203,-0.064 0.233,-0.064C0.262,-0.064 0.284,-0.07 0.299,-0.083C0.314,-0.096 0.321,-0.113 0.321,-0.135Z" style="fill:#fff;fill-rule:nonzero;"/>
            </g>
        </g>
    </g>
</svg>
